<svg width="36" height="35" viewBox="0 0 36 35" fill="none" xmlns="http://www.w3.org/2000/svg">
<path d="M1.28571 15H34.7143C35.0553 15 35.3823 14.8683 35.6234 14.6339C35.8645 14.3995 36 14.0815 36 13.75V11.25C36 10.9185 35.8645 10.6005 35.6234 10.3661C35.3823 10.1317 35.0553 10 34.7143 10H1.28571C0.944722 10 0.617695 10.1317 0.376577 10.3661C0.135459 10.6005 0 10.9185 0 11.25L0 13.75C0 14.0815 0.135459 14.3995 0.376577 14.6339C0.617695 14.8683 0.944722 15 1.28571 15ZM34.7143 30H1.28571C0.944722 30 0.617695 30.1317 0.376577 30.3661C0.135459 30.6005 0 30.9185 0 31.25L0 33.75C0 34.0815 0.135459 34.3995 0.376577 34.6339C0.617695 34.8683 0.944722 35 1.28571 35H34.7143C35.0553 35 35.3823 34.8683 35.6234 34.6339C35.8645 34.3995 36 34.0815 36 33.75V31.25C36 30.9185 35.8645 30.6005 35.6234 30.3661C35.3823 30.1317 35.0553 30 34.7143 30ZM34.969 3.04967e-07H13.8881C13.7527 -0.000102433 13.6186 0.0257537 13.4935 0.0760898C13.3683 0.126426 13.2546 0.200254 13.1589 0.293351C13.0631 0.386447 12.9872 0.496986 12.9354 0.618642C12.8836 0.740299 12.857 0.870686 12.8571 1.00234V3.99766C12.857 4.12931 12.8836 4.2597 12.9354 4.38136C12.9872 4.50301 13.0631 4.61355 13.1589 4.70665C13.2546 4.79975 13.3683 4.87357 13.4935 4.92391C13.6186 4.97425 13.7527 5.0001 13.8881 5H34.969C35.1044 5.0001 35.2386 4.97425 35.3637 4.92391C35.4888 4.87357 35.6025 4.79975 35.6983 4.70665C35.794 4.61355 35.87 4.50301 35.9217 4.38136C35.9735 4.2597 36.0001 4.12931 36 3.99766V1.00234C36.0001 0.870686 35.9735 0.740299 35.9217 0.618642C35.87 0.496986 35.794 0.386447 35.6983 0.293351C35.6025 0.200254 35.4888 0.126426 35.3637 0.0760898C35.2386 0.0257537 35.1044 -0.000102433 34.969 3.04967e-07ZM34.969 20H13.8881C13.7527 19.9999 13.6186 20.0258 13.4935 20.0761C13.3683 20.1264 13.2546 20.2003 13.1589 20.2934C13.0631 20.3864 12.9872 20.497 12.9354 20.6186C12.8836 20.7403 12.857 20.8707 12.8571 21.0023V23.9977C12.857 24.1293 12.8836 24.2597 12.9354 24.3814C12.9872 24.503 13.0631 24.6136 13.1589 24.7066C13.2546 24.7997 13.3683 24.8736 13.4935 24.9239C13.6186 24.9742 13.7527 25.0001 13.8881 25H34.969C35.1044 25.0001 35.2386 24.9742 35.3637 24.9239C35.4888 24.8736 35.6025 24.7997 35.6983 24.7066C35.794 24.6136 35.87 24.503 35.9217 24.3814C35.9735 24.2597 36.0001 24.1293 36 23.9977V21.0023C36.0001 20.8707 35.9735 20.7403 35.9217 20.6186C35.87 20.497 35.794 20.3864 35.6983 20.2934C35.6025 20.2003 35.4888 20.1264 35.3637 20.0761C35.2386 20.0258 35.1044 19.9999 34.969 20Z" fill="#E7E7E7"/>
</svg>
